#!OML:ASF I:\Actors\actors\Patient Classification 2\Patient 1\Session 1\actor1.ASF
:FULLY-SPECIFIED
:DEGREES
620
root -0.475244 18.5781 5.15015 -5.37098 0.815049 -3.1734
lowerback 20.1055 0.233688 0.0143648
upperback 3.95114 0.470678 1.99622
thorax -6.97589 0.243977 2.02368
lowerneck 0.967186 -2.6622 -2.99022
upperneck 44.4848 -4.70418 2.65268
head 15.8971 -2.18348 1.15593
rclavicle -2.90723e-015 3.08116e-015
rhumerus -59.5719 5.5257 -73.8341
rradius 118.267
rwrist -0.207919
rhand 16.86 -52.2689
rfingers 7.12502
rthumb 41.5995 -76.9917
lclavicle -2.90723e-015 3.08116e-015
lhumerus -57.7495 -10.1986 84.1347
lradius 110.629
lwrist 8.07732
lhand -8.05501 -23.8049
lfingers 7.12502
lthumb 17.8559 5.39534
rfemur 13.0621 7.55344 17.8765
rtibia 2.06736e-014
rfoot -19.7017 -17.1949
rtoes -14.5416
lfemur -3.0111 -1.8621 -11.5462
ltibia 26.4509
lfoot -20.029 7.80942
ltoes -56.0022
621
root -0.478205 18.579 5.12563 -5.43115 0.600268 -3.2163
lowerback 20.0711 0.246999 -0.000480949
upperback 4.04682 0.487188 2.05761
thorax -6.85508 0.251411 2.09349
lowerneck 0.93207 -2.61165 -3.01678
upperneck 44.4933 -4.58853 2.55114
head 15.9013 -2.15093 1.12916
rclavicle -5.91384e-015 -2.18663e-015
rhumerus -59.8458 5.36977 -73.9069
rradius 118.016
rwrist -0.202213
rhand 17.9689 -53.4693
rfingers 7.12502
rthumb 42.6385 -77.8417
lclavicle -5.91384e-015 -2.18663e-015
lhumerus -57.965 -10.0848 84.4604
lradius 110.454
lwrist 7.96963
lhand -8.00239 -23.6971
lfingers 7.12502
lthumb 17.9065 5.49855
rfemur 12.9972 7.76628 17.9524
rtibia 3.18055e-014
rfoot -19.6034 -17.2698
rtoes -14.5319
lfemur -2.9961 -1.82994 -11.5019
ltibia 26.4775
lfoot -20.0177 7.96711
ltoes -55.972
622
root -0.485866 18.5794 5.10489 -5.49666 0.422711 -3.27235
lowerback 20.1098 0.268497 0.0217063
upperback 4.07839 0.520321 2.07022
thorax -6.84259 0.266686 2.08598
lowerneck 0.945311 -2.60245 -2.97756
upperneck 44.5419 -4.55916 2.48289
head 15.9205 -2.14117 1.09574
rclavicle 5.01931e-015 -3.57812e-015
rhumerus -60.1938 5.17165 -74.0978
rradius 117.841
rwrist -0.118222
rhand 17.4344 -53.225
rfingers 7.12502
rthumb 42.138 -77.7686
lclavicle 5.01931e-015 -3.57812e-015
lhumerus -58.1447 -10.1204 84.7416
lradius 110.298
lwrist 7.93451
lhand -7.92628 -23.6613
lfingers 7.12502
lthumb 17.9798 5.52764
rfemur 12.9746 7.93759 18.059
rtibia 1.74931e-014
rfoot -19.574 -17.2784
rtoes -14.4033
lfemur -2.97536 -1.72207 -11.4056
ltibia 26.5081
lfoot -19.9747 8.06604
ltoes -56.204
623
root -0.492447 18.5801 5.08413 -5.51983 0.280528 -3.35777
lowerback 20.0822 0.275283 0.0856847
upperback 4.10794 0.543742 2.10207
thorax -6.7965 0.276544 2.07754
lowerneck 0.883026 -2.6015 -2.92994
upperneck 44.6554 -4.52594 2.36798
head 15.9919 -2.13227 1.03996
rclavicle 6.95746e-016 2.78299e-015
rhumerus -60.4353 5.0235 -74.2328
rradius 117.695
rwrist 0.000252259
rhand 17.0958 -53.0789
rfingers 7.12502
rthumb 41.8206 -77.7288
lclavicle 6.95746e-016 2.78299e-015
lhumerus -58.21 -10.2187 85.0187
lradius 110.148
lwrist 8.06337
lhand -7.8511 -23.702
lfingers 7.12502
lthumb 18.0521 5.48023
rfemur 12.9078 8.07015 18.1806
rtibia 7.95139e-015
rfoot -19.5615 -17.2772
rtoes -14.3173
lfemur -3.00613 -1.62322 -11.2752
ltibia 26.5293
lfoot -19.9256 8.13016
ltoes -56.3675
624
root -0.498763 18.5808 5.06519 -5.54871 0.173548 -3.43672
lowerback 20.0493 0.274702 0.154363
upperback 4.11499 0.559416 2.1405
thorax -6.77178 0.282899 2.07563
lowerneck 0.886108 -2.60372 -2.91052
upperneck 44.7605 -4.49867 2.26555
head 16.0456 -2.12957 0.995015
rclavicle -6.33626e-015 -2.72335e-014
rhumerus -60.6303 4.90846 -74.2847
rradius 117.551
rwrist 0.0830947
rhand 17.2249 -53.0229
rfingers 7.12502
rthumb 41.9417 -77.6324
lclavicle -6.33626e-015 -2.72335e-014
lhumerus -58.238 -10.3635 85.295
lradius 110.011
lwrist 8.18062
lhand -7.84967 -23.6935
lfingers 7.12502
lthumb 18.0535 5.48859
rfemur 12.8557 8.16806 18.2952
rtibia -1.59028e-015
rfoot -19.5023 -17.3183
rtoes -14.5203
lfemur -3.02744 -1.54045 -11.1551
ltibia 26.5379
lfoot -19.8699 8.15731
ltoes -56.3923
625
root -0.504773 18.5809 5.04847 -5.60608 0.125159 -3.45375
lowerback 20.0061 0.261755 0.130936
upperback 4.12172 0.538476 2.1624
thorax -6.74119 0.273122 2.11775
lowerneck 0.996677 -2.60052 -2.92691
upperneck 44.7804 -4.47418 2.20568
head 16.0289 -2.13098 0.976095
rclavicle 4.77083e-015 5.1684e-015
rhumerus -60.7787 4.87719 -74.3788
rradius 117.444
rwrist -0.00285054
rhand 17.3486 -53.3304
rfingers 7.12502
rthumb 42.0575 -77.9012
lclavicle 4.77083e-015 5.1684e-015
lhumerus -58.2386 -10.4766 85.5369
lradius 109.901
lwrist 8.19243
lhand -7.90381 -23.7303
lfingers 7.12502
lthumb 18.0014 5.45661
rfemur 12.8506 8.21523 18.3395
rtibia -3.18055e-015
rfoot -19.4422 -17.3313
rtoes -14.6159
lfemur -3.00894 -1.50951 -11.1116
ltibia 26.5273
lfoot -19.8355 8.16886
ltoes -56.3979
